solid OpenSCAD_Model
  facet normal 1 -0 0
    outer loop
      vertex 5.9 0 4.2
      vertex 5.9 4.9 0.599999
      vertex 5.9 4.9 4.2
    endloop
  endfacet
  facet normal 1 0 0
    outer loop
      vertex 5.9 4.9 0.599999
      vertex 5.9 0 4.2
      vertex 5.9 0 0.599999
    endloop
  endfacet
  facet normal 0 0 -1
    outer loop
      vertex 6.5 -0.599999 0
      vertex 5.3 0.6 0
      vertex 6.5 5.5 0
    endloop
  endfacet
  facet normal 0 0 -1
    outer loop
      vertex 6.5 -0.599999 0
      vertex 0.6 0.6 0
      vertex 5.3 0.6 0
    endloop
  endfacet
  facet normal -0 0 -1
    outer loop
      vertex 0.6 0.6 0
      vertex -0.599999 -0.599999 0
      vertex 0.6 4.3 0
    endloop
  endfacet
  facet normal 0 0 -1
    outer loop
      vertex -0.599999 -0.599999 0
      vertex 0.6 0.6 0
      vertex 6.5 -0.599999 0
    endloop
  endfacet
  facet normal 0 0 -1
    outer loop
      vertex 5.3 4.3 0
      vertex 6.5 5.5 0
      vertex 5.3 0.6 0
    endloop
  endfacet
  facet normal 0 0 -1
    outer loop
      vertex 0.6 4.3 0
      vertex 6.5 5.5 0
      vertex 5.3 4.3 0
    endloop
  endfacet
  facet normal 0 0 -1
    outer loop
      vertex 0.6 4.3 0
      vertex -0.599999 5.5 0
      vertex 6.5 5.5 0
    endloop
  endfacet
  facet normal 0 0 -1
    outer loop
      vertex -0.599999 5.5 0
      vertex 0.6 4.3 0
      vertex -0.599999 -0.599999 0
    endloop
  endfacet
  facet normal -1 0 0
    outer loop
      vertex 0 0 0.599999
      vertex 0 4.9 4.2
      vertex 0 4.9 0.599999
    endloop
  endfacet
  facet normal -1 -0 0
    outer loop
      vertex 0 4.9 4.2
      vertex 0 0 0.599999
      vertex 0 0 4.2
    endloop
  endfacet
  facet normal 0 1 -0
    outer loop
      vertex 5.9 4.9 0.599999
      vertex 0 4.9 4.2
      vertex 5.9 4.9 4.2
    endloop
  endfacet
  facet normal 0 1 0
    outer loop
      vertex 0 4.9 4.2
      vertex 5.9 4.9 0.599999
      vertex 0 4.9 0.599999
    endloop
  endfacet
  facet normal 0 -1 0
    outer loop
      vertex 0 0 0.599999
      vertex 5.9 0 4.2
      vertex 0 0 4.2
    endloop
  endfacet
  facet normal 0 -1 -0
    outer loop
      vertex 5.9 0 4.2
      vertex 0 0 0.599999
      vertex 5.9 0 0.599999
    endloop
  endfacet
  facet normal 1 -0 0
    outer loop
      vertex 6.5 -0.599999 0.599999
      vertex 6.5 5.5 0
      vertex 6.5 5.5 0.599999
    endloop
  endfacet
  facet normal 1 0 0
    outer loop
      vertex 6.5 5.5 0
      vertex 6.5 -0.599999 0.599999
      vertex 6.5 -0.599999 0
    endloop
  endfacet
  facet normal 0 0 1
    outer loop
      vertex 6.5 5.5 0.599999
      vertex 5.9 4.9 0.599999
      vertex 6.5 -0.599999 0.599999
    endloop
  endfacet
  facet normal 0 0 1
    outer loop
      vertex 6.5 5.5 0.599999
      vertex 0 4.9 0.599999
      vertex 5.9 4.9 0.599999
    endloop
  endfacet
  facet normal 0 0 1
    outer loop
      vertex 0 4.9 0.599999
      vertex -0.599999 5.5 0.599999
      vertex 0 0 0.599999
    endloop
  endfacet
  facet normal -0 0 1
    outer loop
      vertex -0.599999 5.5 0.599999
      vertex 0 4.9 0.599999
      vertex 6.5 5.5 0.599999
    endloop
  endfacet
  facet normal -0 0 1
    outer loop
      vertex 5.9 0 0.599999
      vertex 6.5 -0.599999 0.599999
      vertex 5.9 4.9 0.599999
    endloop
  endfacet
  facet normal -0 0 1
    outer loop
      vertex 0 0 0.599999
      vertex 6.5 -0.599999 0.599999
      vertex 5.9 0 0.599999
    endloop
  endfacet
  facet normal 0 0 1
    outer loop
      vertex 0 0 0.599999
      vertex -0.599999 -0.599999 0.599999
      vertex 6.5 -0.599999 0.599999
    endloop
  endfacet
  facet normal 0 0 1
    outer loop
      vertex -0.599999 -0.599999 0.599999
      vertex 0 0 0.599999
      vertex -0.599999 5.5 0.599999
    endloop
  endfacet
  facet normal -1 0 0
    outer loop
      vertex -0.599999 -0.599999 0
      vertex -0.599999 5.5 0.599999
      vertex -0.599999 5.5 0
    endloop
  endfacet
  facet normal -1 -0 0
    outer loop
      vertex -0.599999 5.5 0.599999
      vertex -0.599999 -0.599999 0
      vertex -0.599999 -0.599999 0.599999
    endloop
  endfacet
  facet normal 0 1 -0
    outer loop
      vertex 6.5 5.5 0
      vertex -0.599999 5.5 0.599999
      vertex 6.5 5.5 0.599999
    endloop
  endfacet
  facet normal 0 1 0
    outer loop
      vertex -0.599999 5.5 0.599999
      vertex 6.5 5.5 0
      vertex -0.599999 5.5 0
    endloop
  endfacet
  facet normal 0 -1 0
    outer loop
      vertex -0.599999 -0.599999 0
      vertex 6.5 -0.599999 0.599999
      vertex -0.599999 -0.599999 0.599999
    endloop
  endfacet
  facet normal 0 -1 -0
    outer loop
      vertex 6.5 -0.599999 0.599999
      vertex -0.599999 -0.599999 0
      vertex 6.5 -0.599999 0
    endloop
  endfacet
  facet normal 0.167108 0 0.985939
    outer loop
      vertex 5.9 4.9 4.2
      vertex 2.95 2.45 4.7
      vertex 5.9 0 4.2
    endloop
  endfacet
  facet normal 0 -0.19996 0.979804
    outer loop
      vertex 2.95 2.45 4.7
      vertex 0 0 4.2
      vertex 5.9 0 4.2
    endloop
  endfacet
  facet normal 0 0.19996 0.979804
    outer loop
      vertex 5.9 4.9 4.2
      vertex 0 4.9 4.2
      vertex 2.95 2.45 4.7
    endloop
  endfacet
  facet normal -0.167108 0 0.985939
    outer loop
      vertex 0 4.9 4.2
      vertex 0 0 4.2
      vertex 2.95 2.45 4.7
    endloop
  endfacet
  facet normal -1 0 0
    outer loop
      vertex 5.3 4.3 0
      vertex 5.3 2.75 0.9
      vertex 5.3 4.3 3.6
    endloop
  endfacet
  facet normal -1 0 0
    outer loop
      vertex 5.3 4.3 0
      vertex 5.3 2.15 0.9
      vertex 5.3 2.75 0.9
    endloop
  endfacet
  facet normal -1 0 0
    outer loop
      vertex 5.3 0.6 0
      vertex 5.3 2.15 0.9
      vertex 5.3 4.3 0
    endloop
  endfacet
  facet normal -1 0 0
    outer loop
      vertex 5.3 0.6 3.6
      vertex 5.3 2.15 0.9
      vertex 5.3 0.6 0
    endloop
  endfacet
  facet normal -1 0 0
    outer loop
      vertex 5.3 2.15 0.9
      vertex 5.3 0.6 3.6
      vertex 5.3 2.15 3.6
    endloop
  endfacet
  facet normal -1 -0 0
    outer loop
      vertex 5.3 4.3 3.6
      vertex 5.3 2.75 0.9
      vertex 5.3 2.75 3.6
    endloop
  endfacet
  facet normal 0 0 -1
    outer loop
      vertex 0.6 2.75 3.6
      vertex 2.65 4.3 3.6
      vertex 2.65 2.75 3.6
    endloop
  endfacet
  facet normal -0 0 -1
    outer loop
      vertex 2.65 4.3 3.6
      vertex 0.6 2.75 3.6
      vertex 0.6 4.3 3.6
    endloop
  endfacet
  facet normal 0 0 -1
    outer loop
      vertex 3.25 2.75 3.6
      vertex 5.3 4.3 3.6
      vertex 5.3 2.75 3.6
    endloop
  endfacet
  facet normal -0 0 -1
    outer loop
      vertex 5.3 4.3 3.6
      vertex 3.25 2.75 3.6
      vertex 3.25 4.3 3.6
    endloop
  endfacet
  facet normal 0 0 -1
    outer loop
      vertex 0.6 0.6 3.6
      vertex 2.65 2.15 3.6
      vertex 2.65 0.6 3.6
    endloop
  endfacet
  facet normal -0 0 -1
    outer loop
      vertex 2.65 2.15 3.6
      vertex 0.6 0.6 3.6
      vertex 0.6 2.15 3.6
    endloop
  endfacet
  facet normal 0 0 -1
    outer loop
      vertex 3.25 0.6 3.6
      vertex 5.3 2.15 3.6
      vertex 5.3 0.6 3.6
    endloop
  endfacet
  facet normal -0 0 -1
    outer loop
      vertex 5.3 2.15 3.6
      vertex 3.25 0.6 3.6
      vertex 3.25 2.15 3.6
    endloop
  endfacet
  facet normal 1 0 0
    outer loop
      vertex 0.6 2.15 3.6
      vertex 0.6 0.6 3.6
      vertex 0.6 2.15 0.9
    endloop
  endfacet
  facet normal 1 0 0
    outer loop
      vertex 0.6 2.75 0.9
      vertex 0.6 4.3 3.6
      vertex 0.6 2.75 3.6
    endloop
  endfacet
  facet normal 1 0 0
    outer loop
      vertex 0.6 4.3 3.6
      vertex 0.6 2.75 0.9
      vertex 0.6 4.3 0
    endloop
  endfacet
  facet normal 1 -0 0
    outer loop
      vertex 0.6 2.15 0.9
      vertex 0.6 4.3 0
      vertex 0.6 2.75 0.9
    endloop
  endfacet
  facet normal 1 0 0
    outer loop
      vertex 0.6 2.15 0.9
      vertex 0.6 0.6 0
      vertex 0.6 4.3 0
    endloop
  endfacet
  facet normal 1 0 0
    outer loop
      vertex 0.6 0.6 0
      vertex 0.6 2.15 0.9
      vertex 0.6 0.6 3.6
    endloop
  endfacet
  facet normal 0 -1 0
    outer loop
      vertex 0.6 4.3 3.6
      vertex 2.65 4.3 0.9
      vertex 2.65 4.3 3.6
    endloop
  endfacet
  facet normal 0 -1 -0
    outer loop
      vertex 2.65 4.3 0.9
      vertex 0.6 4.3 0
      vertex 3.25 4.3 0.9
    endloop
  endfacet
  facet normal 0 -1 0
    outer loop
      vertex 0.6 4.3 0
      vertex 2.65 4.3 0.9
      vertex 0.6 4.3 3.6
    endloop
  endfacet
  facet normal 0 -1 0
    outer loop
      vertex 3.25 4.3 0.9
      vertex 5.3 4.3 3.6
      vertex 3.25 4.3 3.6
    endloop
  endfacet
  facet normal 0 -1 0
    outer loop
      vertex 3.25 4.3 0.9
      vertex 5.3 4.3 0
      vertex 5.3 4.3 3.6
    endloop
  endfacet
  facet normal 0 -1 0
    outer loop
      vertex 5.3 4.3 0
      vertex 3.25 4.3 0.9
      vertex 0.6 4.3 0
    endloop
  endfacet
  facet normal 0 1 0
    outer loop
      vertex 5.3 0.6 3.6
      vertex 3.25 0.6 0.9
      vertex 3.25 0.6 3.6
    endloop
  endfacet
  facet normal 0 1 0
    outer loop
      vertex 3.25 0.6 0.9
      vertex 5.3 0.6 0
      vertex 2.65 0.6 0.9
    endloop
  endfacet
  facet normal 0 1 -0
    outer loop
      vertex 5.3 0.6 0
      vertex 3.25 0.6 0.9
      vertex 5.3 0.6 3.6
    endloop
  endfacet
  facet normal 0 1 -0
    outer loop
      vertex 2.65 0.6 0.9
      vertex 0.6 0.6 3.6
      vertex 2.65 0.6 3.6
    endloop
  endfacet
  facet normal 0 1 0
    outer loop
      vertex 2.65 0.6 0.9
      vertex 0.6 0.6 0
      vertex 0.6 0.6 3.6
    endloop
  endfacet
  facet normal 0 1 0
    outer loop
      vertex 0.6 0.6 0
      vertex 2.65 0.6 0.9
      vertex 5.3 0.6 0
    endloop
  endfacet
  facet normal 0 0 -1
    outer loop
      vertex 0.6 2.15 0.9
      vertex 2.65 2.75 0.9
      vertex 2.65 2.15 0.9
    endloop
  endfacet
  facet normal -0 0 -1
    outer loop
      vertex 2.65 2.75 0.9
      vertex 0.6 2.15 0.9
      vertex 0.6 2.75 0.9
    endloop
  endfacet
  facet normal 0 0 -1
    outer loop
      vertex 2.65 2.15 0.9
      vertex 3.25 2.15 0.9
      vertex 3.25 0.6 0.9
    endloop
  endfacet
  facet normal 0 0 -1
    outer loop
      vertex 3.25 2.15 0.9
      vertex 2.65 2.15 0.9
      vertex 3.25 2.75 0.9
    endloop
  endfacet
  facet normal 0 0 -1
    outer loop
      vertex 2.65 2.15 0.9
      vertex 3.25 0.6 0.9
      vertex 2.65 0.6 0.9
    endloop
  endfacet
  facet normal 0 0 -1
    outer loop
      vertex 2.65 2.75 0.9
      vertex 3.25 2.75 0.9
      vertex 2.65 2.15 0.9
    endloop
  endfacet
  facet normal 0 0 -1
    outer loop
      vertex 3.25 2.75 0.9
      vertex 2.65 2.75 0.9
      vertex 3.25 4.3 0.9
    endloop
  endfacet
  facet normal -0 0 -1
    outer loop
      vertex 3.25 4.3 0.9
      vertex 2.65 2.75 0.9
      vertex 2.65 4.3 0.9
    endloop
  endfacet
  facet normal 0 0 -1
    outer loop
      vertex 3.25 2.15 0.9
      vertex 5.3 2.75 0.9
      vertex 5.3 2.15 0.9
    endloop
  endfacet
  facet normal -0 0 -1
    outer loop
      vertex 5.3 2.75 0.9
      vertex 3.25 2.15 0.9
      vertex 3.25 2.75 0.9
    endloop
  endfacet
  facet normal 0 1 -0
    outer loop
      vertex 5.3 2.75 0.9
      vertex 3.25 2.75 3.6
      vertex 5.3 2.75 3.6
    endloop
  endfacet
  facet normal 0 1 0
    outer loop
      vertex 3.25 2.75 3.6
      vertex 5.3 2.75 0.9
      vertex 3.25 2.75 0.9
    endloop
  endfacet
  facet normal 0 1 -0
    outer loop
      vertex 2.65 2.75 0.9
      vertex 0.6 2.75 3.6
      vertex 2.65 2.75 3.6
    endloop
  endfacet
  facet normal 0 1 0
    outer loop
      vertex 0.6 2.75 3.6
      vertex 2.65 2.75 0.9
      vertex 0.6 2.75 0.9
    endloop
  endfacet
  facet normal 0 -1 0
    outer loop
      vertex 3.25 2.15 0.9
      vertex 5.3 2.15 3.6
      vertex 3.25 2.15 3.6
    endloop
  endfacet
  facet normal 0 -1 -0
    outer loop
      vertex 5.3 2.15 3.6
      vertex 3.25 2.15 0.9
      vertex 5.3 2.15 0.9
    endloop
  endfacet
  facet normal 0 -1 0
    outer loop
      vertex 0.6 2.15 0.9
      vertex 2.65 2.15 3.6
      vertex 0.6 2.15 3.6
    endloop
  endfacet
  facet normal 0 -1 -0
    outer loop
      vertex 2.65 2.15 3.6
      vertex 0.6 2.15 0.9
      vertex 2.65 2.15 0.9
    endloop
  endfacet
  facet normal 1 -0 0
    outer loop
      vertex 3.25 2.75 3.6
      vertex 3.25 4.3 0.9
      vertex 3.25 4.3 3.6
    endloop
  endfacet
  facet normal 1 0 0
    outer loop
      vertex 3.25 4.3 0.9
      vertex 3.25 2.75 3.6
      vertex 3.25 2.75 0.9
    endloop
  endfacet
  facet normal 1 -0 0
    outer loop
      vertex 3.25 0.6 3.6
      vertex 3.25 2.15 0.9
      vertex 3.25 2.15 3.6
    endloop
  endfacet
  facet normal 1 0 0
    outer loop
      vertex 3.25 2.15 0.9
      vertex 3.25 0.6 3.6
      vertex 3.25 0.6 0.9
    endloop
  endfacet
  facet normal -1 0 0
    outer loop
      vertex 2.65 0.6 0.9
      vertex 2.65 2.15 3.6
      vertex 2.65 2.15 0.9
    endloop
  endfacet
  facet normal -1 -0 0
    outer loop
      vertex 2.65 2.15 3.6
      vertex 2.65 0.6 0.9
      vertex 2.65 0.6 3.6
    endloop
  endfacet
  facet normal -1 0 0
    outer loop
      vertex 2.65 2.75 0.9
      vertex 2.65 4.3 3.6
      vertex 2.65 4.3 0.9
    endloop
  endfacet
  facet normal -1 -0 0
    outer loop
      vertex 2.65 4.3 3.6
      vertex 2.65 2.75 0.9
      vertex 2.65 2.75 3.6
    endloop
  endfacet
endsolid OpenSCAD_Model
